<svg width="650" height="380" viewBox="0 0 650 380" fill="none" xmlns="http://www.w3.org/2000/svg">
<g id="10183174_4358633 1" clip-path="url(#clip0_1_3)">
<g id="illustartion">
<g id="background-group">
<g id="purple-paint-group">
<path id="Vector" d="M325.12 8.71776C311.389 8.60908 298.119 10.5331 285.579 14.2066C278.488 16.2838 275.998 25.1691 281.02 30.6553L335.796 90.4838C340.217 95.3117 340.134 102.853 335.613 107.383C331.264 111.741 324.327 111.769 319.771 107.447L311.436 99.541C309.138 97.3613 305.598 97.5395 303.606 99.9365C301.782 102.131 301.893 105.44 303.861 107.58L336.491 143.044C340.96 147.901 340.571 155.594 335.645 159.737C331.251 163.433 324.79 162.957 320.785 158.641L285.009 120.09C282.431 117.312 278.226 117.147 275.56 119.718C272.801 122.38 272.763 126.93 275.474 129.761L292.179 147.198C295.551 150.651 295.433 156.291 291.924 159.44C288.691 162.34 283.775 162.027 280.786 158.729L249.429 125.653C246.71 122.785 242.295 122.756 239.655 125.588C237.082 128.349 237.173 132.793 239.861 135.552L280.572 177.338C284.71 181.687 284.793 188.604 280.757 192.882C276.473 197.422 269.305 197.168 265.141 192.329L204.54 121.891C199.013 115.468 188.663 118.557 187.349 126.978C186.189 134.415 185.605 142.047 185.644 149.824C186.034 226.887 249.947 290.479 325.91 289.448C400.769 288.433 461.279 227.119 462.386 151.206C463.506 74.3166 400.922 9.31634 325.12 8.71776Z" fill="#C9BED9"/>
<path id="Vector_2" d="M234.731 118.562C235.54 115.073 233.408 111.58 229.969 110.759C226.53 109.939 223.086 112.101 222.277 115.59C221.468 119.078 223.6 122.572 227.039 123.392C230.478 124.213 233.922 122.05 234.731 118.562Z" fill="#C9BED9"/>
<path id="Vector_3" d="M296.474 99.9371C300.006 99.9371 302.871 97.0318 302.871 93.4479C302.871 89.864 300.006 86.9587 296.474 86.9587C292.941 86.9587 290.077 89.864 290.077 93.4479C290.077 97.0318 292.941 99.9371 296.474 99.9371Z" fill="#C9BED9"/>
<path id="Vector_4" d="M265.545 12.9783C269.078 12.9783 271.942 10.073 271.942 6.48916C271.942 2.9053 269.078 0 265.545 0C262.012 0 259.148 2.9053 259.148 6.48916C259.148 10.073 262.012 12.9783 265.545 12.9783Z" fill="#C9BED9"/>
</g>
<g id="red-paint-group">
<path id="Vector_5" d="M609.55 63.4698C616.812 59.1792 619.27 49.7292 615.041 42.3628C610.811 34.9963 601.495 32.5028 594.233 36.7935C586.972 41.0841 584.513 50.5341 588.743 57.9005C592.973 65.267 602.289 67.7605 609.55 63.4698Z" fill="#F09599"/>
<path id="Vector_6" d="M553.861 27.6535C556.838 27.6535 559.251 25.2053 559.251 22.1852C559.251 19.1651 556.838 16.7168 553.861 16.7168C550.883 16.7168 548.47 19.1651 548.47 22.1852C548.47 25.2053 550.883 27.6535 553.861 27.6535Z" fill="#F09599"/>
<path id="Vector_7" d="M611.401 240.103C614.378 240.103 616.791 237.655 616.791 234.635C616.791 231.615 614.378 229.167 611.401 229.167C608.423 229.167 606.01 231.615 606.01 234.635C606.01 237.655 608.423 240.103 611.401 240.103Z" fill="#F09599"/>
<path id="Vector_8" d="M490.722 220.982C493.699 220.982 496.113 218.534 496.113 215.514C496.113 212.494 493.699 210.045 490.722 210.045C487.745 210.045 485.331 212.494 485.331 215.514C485.331 218.534 487.745 220.982 490.722 220.982Z" fill="#F09599"/>
<path id="Vector_9" d="M563.976 221.006C563.976 223.84 561.711 226.137 558.918 226.137C556.125 226.137 553.86 223.84 553.86 221.006C553.86 218.173 556.125 215.876 558.918 215.876C561.711 215.877 563.976 218.173 563.976 221.006Z" fill="#F09599"/>
<path id="Vector_10" d="M606.229 112.319C606.229 85.6009 578.631 63.8926 551.609 85.2179C525.437 67.8911 501.923 85.3187 500.966 109.846C500.617 118.777 502.955 127.177 507.288 134.415C508.499 136.437 514.394 144.396 514.394 142.085C514.394 134.533 514.004 128.757 517.76 128.757C521.517 128.757 521.126 132.395 521.126 135.865V151.937V153.43V177.757C521.126 180.793 522.169 183.311 525.453 183.403C528.851 183.497 529.78 180.875 529.78 177.757V160.301C529.78 158.272 544.685 174.073 554.782 176.739C558.629 175.682 569.421 169.861 573.268 164.974V169.63C573.268 172.64 573.858 174.871 577.114 174.962C580.483 175.055 580.838 172.722 580.838 169.63V154.525C580.838 152.028 581.156 149.224 583.846 148.987C586.93 148.715 587.604 151.525 587.604 154.32V171.24C587.604 173.819 588.467 176.406 591.324 176.739C594.517 177.11 595.201 174.257 595.171 171.24C595.14 168.222 595.171 139.864 595.171 139.864C596.62 135.421 606.229 129.43 606.229 112.319Z" fill="#F09599"/>
</g>
<g id="yellow-paint-group">
<path id="Vector_11" d="M169.128 34.7036C172.105 34.7036 174.519 32.2553 174.519 29.2352C174.519 26.2151 172.105 23.7669 169.128 23.7669C166.151 23.7669 163.737 26.2151 163.737 29.2352C163.737 32.2553 166.151 34.7036 169.128 34.7036Z" fill="#EFC786"/>
<path id="Vector_12" d="M38.8685 269.113C41.8457 269.113 44.2592 266.665 44.2592 263.645C44.2592 260.625 41.8457 258.177 38.8685 258.177C35.8913 258.177 33.4778 260.625 33.4778 263.645C33.4778 266.665 35.8913 269.113 38.8685 269.113Z" fill="#EFC786"/>
<path id="Vector_13" d="M121.384 55.5165C124.321 50.6958 122.849 44.3728 118.097 41.3938C113.344 38.4147 107.111 39.9077 104.175 44.7285C101.238 49.5492 102.71 55.8722 107.462 58.8512C112.214 61.8302 118.447 60.3372 121.384 55.5165Z" fill="#EFC786"/>
<path id="Vector_14" d="M71.7638 48.8037C82.4175 48.8037 91.054 40.0427 91.054 29.2355C91.054 18.4284 82.4175 9.6674 71.7638 9.6674C61.1101 9.6674 52.4736 18.4284 52.4736 29.2355C52.4736 40.0427 61.1101 48.8037 71.7638 48.8037Z" fill="#EFC786"/>
</g>
</g>
<g id="objects">
<g id="ladder-group">
<path id="ladderShadow" d="M223.627 365.827C223.627 368.513 173.566 370.691 111.813 370.691C50.0607 370.691 0 368.514 0 365.827C0 363.141 50.0607 360.964 111.813 360.964C173.566 360.964 223.627 363.141 223.627 365.827Z" fill="#C5BAC6"/>
<g id="ladder-group_2">
<path id="Vector_15" d="M135.127 254.913C142.778 294.619 150.385 334.238 156.238 364.775H167.05C161.46 335.614 151.312 282.725 141.263 230.644L135.127 254.913Z" fill="#6C74C3"/>
<path id="Vector_16" d="M223.76 364.775H234.571C222.076 299.569 181.543 88.3585 179.273 80.3756L179.262 80.3791L173.314 103.904C183.538 155.342 209.429 290 223.76 364.775Z" fill="#6C74C3"/>
<path id="Vector_17" d="M136.52 206.079C126.623 154.89 117.564 108.4 114.001 91.1421H108.127L105.202 101.1C109.981 124.903 119.884 175.911 130.387 230.331L136.52 206.079Z" fill="#6C74C3"/>
<path id="Vector_18" d="M68.8689 215.562C69.5837 215.391 142.533 220.055 142.533 220.055L200.156 202.746V199.119L69.2772 211.349L68.8689 215.562Z" fill="#5862AF"/>
<path id="Vector_19" d="M123.796 196.222L200.156 199.119L142.942 215.562L64.7469 212.081L123.796 196.222Z" fill="#3C328C"/>
<path id="Vector_20" d="M45.6605 297.783C46.5729 297.612 120.6 304.991 120.6 304.991L211.887 286.427V282.8L46.1821 293.571L45.6605 297.783Z" fill="#5862AF"/>
<path id="Vector_21" d="M179.262 80.379L186.033 113.519L170.067 116.744L179.262 80.379Z" fill="#555FA3"/>
<path id="Vector_22" d="M139.799 279.171L211.888 282.8L121.122 300.498L40.4042 294.302L139.799 279.171Z" fill="#3C328C"/>
<path id="Vector_23" opacity="0.44" d="M102.311 109.573L107.743 87.6237H166.986L160.426 108.934L102.311 109.573Z" fill="#555FA3"/>
<path id="Vector_24" d="M100.335 117.674L159.026 117.076L136.52 206.079L130.387 230.331L96.3894 364.775H107.346L135.127 254.913L141.264 230.644L173.314 103.903L179.262 80.3791L179.263 80.3756H100.214L16.6839 364.775H27.7577L100.335 117.674Z" fill="#838BDD"/>
</g>
<g id="box-brown">
<g id="Group">
<path id="Vector_25" d="M99.0857 258.531L66.1801 256.921L64.5818 290.543C67.7056 295.569 91.6572 296.902 97.4865 292.153L99.0848 258.531L99.0857 258.531Z" fill="#956A69"/>
<path id="Vector_26" d="M66.18 256.922C66.1013 258.577 73.4033 260.279 82.4899 260.724C91.5765 261.168 99.006 260.187 99.0847 258.531C99.1634 256.875 91.8615 255.173 82.7749 254.729C73.6891 254.284 66.2587 255.266 66.18 256.922Z" fill="#65343B"/>
<path id="Vector_27" d="M96.7951 259.922C93.9915 258.887 88.7191 258.024 82.6331 257.726C76.547 257.429 71.2163 257.773 68.3285 258.529C71.132 259.564 76.4044 260.427 82.4905 260.725C88.5767 261.022 93.9064 260.678 96.7951 259.922Z" fill="#0F041F"/>
</g>
<path id="Vector_28" d="M89.143 260.794L88.556 273.145C88.4929 274.472 87.3804 275.497 86.0727 275.433C84.7641 275.369 83.754 274.24 83.8171 272.913L83.9306 270.525C83.9748 269.595 83.2677 268.805 82.3512 268.76C81.4346 268.716 80.6559 269.433 80.6117 270.363L80.0195 282.82C79.9569 284.136 78.8546 285.152 77.5574 285.088C76.2602 285.025 75.2593 283.907 75.3218 282.591L76.0728 266.792C76.1272 265.648 75.2566 264.675 74.1286 264.62C73.0007 264.565 72.0418 265.448 71.9874 266.592L71.471 277.455C71.4135 278.665 70.3995 279.598 69.2075 279.54C68.0068 279.481 67.0831 278.439 67.1533 277.222L68.222 258.494C70.9993 259.545 76.3342 260.424 82.4914 260.725C84.8534 260.84 87.1031 260.858 89.143 260.794Z" fill="#291942"/>
<path id="Vector_29" d="M68.0021 285.556C67.9491 286.671 68.7973 287.618 69.8954 287.671C70.9935 287.725 71.9276 286.865 71.9806 285.751C72.0336 284.636 71.1854 283.689 70.0873 283.636C68.9891 283.582 68.0551 284.441 68.0021 285.556Z" fill="#291942"/>
</g>
<g id="box-brown-brush">
<path id="Vector_30" d="M104.113 252.74L99.3641 235.531L84.2708 240.05L89.2333 257.749L104.113 252.74Z" fill="#291942"/>
<path id="Vector_31" d="M89.0465 257.1L104.111 252.753L102.539 247.148L87.4747 251.496L89.0465 257.1Z" fill="#65343B"/>
<g id="Group_2">
<g id="Group_3">
<path id="Vector_32" d="M89.0478 257.087L89.233 257.748C89.4528 258.531 90.0256 259.16 90.7759 259.447C95.1392 261.12 96.3273 264.872 96.3273 264.872L104.607 294.4C104.82 295.16 105.322 295.803 106.003 296.187L106.499 296.468C107.637 297.111 109.072 296.696 109.706 295.542L109.983 295.038C110.362 294.348 110.455 293.533 110.242 292.772L101.962 263.245C101.962 263.245 101.027 259.421 103.868 255.669C104.357 255.024 104.518 254.183 104.299 253.401L104.114 252.739L96.5811 254.912L89.0478 257.087ZM106.213 293.269C106.049 292.687 106.382 292.082 106.955 291.916C107.529 291.75 108.125 292.088 108.289 292.669C108.452 293.251 108.119 293.856 107.546 294.022C106.973 294.187 106.376 293.849 106.213 293.269Z" fill="#E35756"/>
</g>
<path id="Vector_33" d="M87.9599 253.226L103.024 248.879L102.539 247.149L87.4748 251.496L87.9599 253.226Z" fill="#291942"/>
<path id="Vector_34" d="M88.746 256.028L103.811 251.681L103.568 250.815L88.5034 255.163L88.746 256.028Z" fill="#291942"/>
</g>
<path id="Vector_35" d="M91.0868 250.44L87.9268 238.956L87.0017 239.233L90.16 250.708L91.0868 250.44Z" fill="#838BDD"/>
<path id="Vector_36" d="M99.8644 247.908L96.6888 236.331L95.763 236.609L98.9376 248.175L99.8644 247.908Z" fill="#838BDD"/>
<path id="Vector_37" d="M95.4755 249.174L92.3077 237.644L91.3826 237.921L94.5487 249.441L95.4755 249.174Z" fill="#838BDD"/>
</g>
<g id="box-red-brush-left">
<path id="Vector_38" d="M102.678 149.094L99.1642 126.986L114.107 121.183L118.25 147.244L102.678 149.094Z" fill="#C56F6C"/>
<path id="Vector_39" opacity="0.41" d="M114.571 141.862L111.449 122.216L110.529 122.573L113.619 142.018L114.571 141.862Z" fill="#65343B"/>
<path id="Vector_40" d="M117.239 140.816L101.776 143.345L102.69 149.098L118.154 146.569L117.239 140.816Z" fill="#838BDD"/>
<g id="Group_4">
<g id="Group_5">
<path id="Vector_41" d="M110.41 147.829L102.678 149.094L102.786 149.773C102.913 150.575 103.411 151.268 104.123 151.643C108.263 153.823 109.01 157.689 109.01 157.689L113.827 187.996C113.951 188.776 114.376 189.475 115.008 189.937L115.468 190.275C116.523 191.048 117.997 190.807 118.76 189.737L119.092 189.27C119.549 188.629 119.735 187.831 119.611 187.051L114.794 156.743C114.794 156.743 114.306 152.834 117.561 149.445C118.12 148.863 118.378 148.047 118.25 147.243L118.142 146.564L110.41 147.829ZM116.789 187.97C116.201 188.066 115.647 187.661 115.552 187.063C115.457 186.467 115.858 185.905 116.446 185.808C117.034 185.712 117.588 186.118 117.683 186.715C117.778 187.312 117.378 187.874 116.789 187.97Z" fill="#65343B"/>
</g>
<path id="Vector_42" opacity="0.41" d="M105.561 143.336L102.741 125.596L101.822 125.953L104.61 143.491L105.561 143.336Z" fill="#65343B"/>
<path id="Vector_43" opacity="0.41" d="M110.066 142.6L107.095 123.905L106.175 124.263L109.114 142.755L110.066 142.6Z" fill="#65343B"/>
<path id="Vector_44" d="M117.231 140.76L101.775 143.344L102.052 145.121L117.507 142.537L117.231 140.76Z" fill="#6C74C3"/>
<path id="Vector_45" d="M117.838 144.579L102.374 147.109L102.515 147.998L117.979 145.468L117.838 144.579Z" fill="#6C74C3"/>
</g>
</g>
<g id="box-red-brush-right">
<path id="Vector_46" d="M137.484 145.612L140.361 127.981L124.801 125.596L121.913 143.762L137.484 145.612Z" fill="#F0AF46"/>
<path id="Vector_47" d="M122.017 143.07L137.481 145.6L138.395 139.846L122.932 137.317L122.017 143.07Z" fill="#838BDD"/>
<g id="Group_6">
<g id="Group_7">
<path id="Vector_48" d="M122.021 143.083L121.913 143.763C121.786 144.565 122.043 145.382 122.603 145.965C125.858 149.354 125.369 153.262 125.369 153.262L120.552 183.57C120.428 184.35 120.615 185.148 121.071 185.789L121.404 186.256C122.166 187.326 123.64 187.568 124.695 186.794L125.155 186.456C125.787 185.993 126.212 185.294 126.335 184.514L131.153 154.207C131.153 154.207 131.9 150.341 136.04 148.161C136.751 147.786 137.249 147.093 137.377 146.291L137.485 145.612L129.753 144.347L122.021 143.083ZM122.48 183.233C122.574 182.636 123.129 182.23 123.717 182.326C124.305 182.423 124.706 182.985 124.611 183.581C124.516 184.178 123.962 184.584 123.374 184.488C122.785 184.392 122.385 183.83 122.48 183.233Z" fill="#3C328C"/>
</g>
<path id="Vector_49" d="M122.649 139.093L138.113 141.622L138.395 139.847L122.931 137.317L122.649 139.093Z" fill="#291942"/>
<path id="Vector_50" d="M122.192 141.97L137.656 144.499L137.798 143.61L122.333 141.08L122.192 141.97Z" fill="#291942"/>
</g>
<path id="Vector_51" opacity="0.41" d="M126.641 137.936L128.569 126.173L127.616 126.027L125.69 137.781L126.641 137.936Z" fill="#65343B"/>
<path id="Vector_52" opacity="0.41" d="M135.65 139.41L137.601 127.558L136.648 127.411L134.699 139.254L135.65 139.41Z" fill="#65343B"/>
<path id="Vector_53" opacity="0.41" d="M131.146 138.673L133.085 126.865L132.132 126.719L130.195 138.517L131.146 138.673Z" fill="#65343B"/>
</g>
<g id="box-red">
<path id="Vector_54" opacity="0.76" d="M119.005 162.816C111.049 162.816 104.601 163.991 104.601 165.44C104.601 166.89 111.049 168.065 119.005 168.065C126.961 168.065 133.409 166.89 133.409 165.44C133.409 163.991 126.961 162.816 119.005 162.816Z" fill="#0F041F"/>
<path id="Vector_55" d="M133.409 165.44C133.409 166.89 126.961 168.065 119.005 168.065C111.049 168.065 104.601 166.89 104.601 165.44V205.874C107.537 210.13 128.515 210.272 133.41 205.874L133.409 165.44Z" fill="#E35756"/>
</g>
<g id="yellow-box">
<path id="Vector_56" d="M167.05 182.937C161.755 182.937 157.461 182.155 157.461 181.189V200.787C160.719 203.715 174.685 203.62 176.64 200.787V181.189C176.64 182.155 172.346 182.937 167.05 182.937Z" fill="#F0AF46"/>
<path id="Vector_57" d="M167.05 182.938C172.347 182.938 176.64 182.156 176.64 181.191C176.64 180.225 172.347 179.443 167.05 179.443C161.754 179.443 157.461 180.225 157.461 181.191C157.461 182.156 161.754 182.938 167.05 182.938Z" fill="#3C328C"/>
</g>
</g>
<g id="human-group">
<path id="painterShadow" d="M366.401 371.494C413.086 371.494 450.931 368.339 450.931 364.447C450.931 360.555 413.086 357.401 366.401 357.401C319.717 357.401 281.871 360.555 281.871 364.447C281.871 368.339 319.717 371.494 366.401 371.494Z" fill="#C5BAC6"/>
<path id="back-2" d="M346.176 204.972C348.423 211.468 369.238 215.399 377.899 209.89C377.899 209.89 379.715 193.329 386.42 186.668C386.42 186.668 383.068 167.254 379.295 163.712C375.524 160.169 372.59 158.043 370.494 158.185C368.399 158.326 358.48 162.153 356.245 164.986C354.01 167.821 361.554 180.291 346.176 204.972Z" fill="#F9C553"/>
<path id="back-1" d="M373.112 165.325C372.889 163.862 374.065 162.319 376.156 160.962C373.859 159.121 371.966 158.085 370.495 158.184C368.4 158.325 358.481 162.152 356.246 164.986C354.011 167.82 361.554 180.291 346.176 204.971C347.728 209.457 358.134 212.717 367.278 212.492C367.643 210.629 368.154 208.686 368.826 206.712C372.24 196.672 378.359 189.708 382.494 191.154C382.695 191.225 382.882 191.33 383.067 191.437C384.019 189.605 385.128 187.951 386.421 186.667C386.421 186.667 384.604 176.156 382.142 169.19C377.15 169.069 373.462 167.625 373.112 165.325Z" fill="#FCA649"/>
<g id="roller">
<path id="roller_2" d="M496.121 123.762C487.228 116.336 468.579 102.594 459.38 95.5611C449.497 88.0057 433.383 109.201 443.545 116.366C452.688 122.811 471.929 134.305 480.754 141.192C488.65 147.354 503.812 130.184 496.121 123.762Z" fill="#E5D6C6"/>
<path id="roller-right-side" d="M488.448 123.812C480.769 123.367 478.35 127.127 477.629 138.87C478.762 139.684 479.826 140.468 480.755 141.192C486.267 145.494 495.314 138.421 497.659 131.575C496.887 130.991 493.645 124.114 488.448 123.812Z" fill="#EFE8DF"/>
<path id="connection" d="M490.688 135.265C492.228 133.73 492.937 131.712 492.272 130.76C491.607 129.808 489.819 130.28 488.279 131.816C486.739 133.352 486.03 135.37 486.695 136.322C487.36 137.274 489.148 136.801 490.688 135.265Z" fill="#7A646D"/>
<path id="bar-3" d="M479.361 149.021L438.147 115.318L444.898 101.324L442.411 99.3458L433.867 116.857L479.274 153.97L479.361 149.021Z" fill="#7A646D"/>
<path id="bar-2" d="M479.361 149.021L495.562 137.768L498.076 140.129L479.274 153.97L477.867 149.884L479.361 149.021Z" fill="#7A646D"/>
<path id="bar-1" d="M498.077 140.129L490.534 133.327L488.997 134.886L495.363 142.127L498.077 140.129Z" fill="#7A646D"/>
<path id="drop-2" d="M462.093 166.931C461.511 180.607 460.107 191.281 463.002 190.738C468.406 189.725 462.093 166.931 462.093 166.931Z" fill="#F09599"/>
<path id="drop-1" d="M447.409 138.093C446.827 147.239 445.423 154.377 448.318 154.014C453.722 153.336 447.409 138.093 447.409 138.093Z" fill="#F2868B" fill-opacity="0.611765"/>
<path id="paint" d="M494.793 134.606C493.362 138.722 496.327 142.568 498.137 140.162C499.223 138.719 498.356 134.335 497.96 127.515C497.951 127.36 497.949 127.207 497.952 127.054C497.481 125.531 496.876 124.393 496.12 123.761C487.228 116.336 468.322 102.925 459.38 95.5609C452.488 89.8867 443.832 98.4095 439.757 107.962C440.334 112.935 442.14 119.438 443.871 121.234C446.981 124.461 441.991 108.739 449.619 110.221C452.932 110.865 456.327 115.203 457.128 124.053C458.888 143.519 460.12 149.323 463.816 148.452C467.512 147.581 457.89 130.601 464.755 126.135C471.619 121.67 476.664 125.592 475.256 136.064C473.847 146.537 480.36 149.297 478.424 136.516C476.488 123.735 478.776 118.949 485.464 120.12C492.152 121.291 497.08 128.023 494.793 134.606Z" fill="#F09599"/>
<path id="shadow" d="M462.28 105.101C465.606 105.101 468.838 105.553 471.942 106.383C466.99 102.675 462.291 99.1258 459.072 96.4749C453.051 91.5169 445.486 98.9646 441.927 107.311C442.052 108.392 442.244 109.557 442.486 110.721C448.388 107.138 455.124 105.101 462.28 105.101Z" fill="#E28E92"/>
<path id="stick" d="M455.684 133.305L457.089 134.686L280.424 325.924L277.481 323.032L455.684 133.305Z" fill="#5B3B46"/>
</g>
<g id="hands-group">
<g id="left">
<path id="hand-2" d="M356.963 164.285C341.597 170.728 325.729 182.02 324.974 183.983C324.219 185.945 327.796 191.829 329.843 190.069C334.048 186.455 349.749 178.598 363.011 176.108C367.452 175.273 361.004 162.59 356.963 164.285Z" fill="#FCA649"/>
<path id="hand-1" d="M348.032 175.667C341.152 178.48 336.124 182.905 335.058 186.646C341.882 182.805 353.122 177.965 363.011 176.107C363.953 175.93 364.402 175.216 364.491 174.223C361.049 172.528 354.642 172.965 348.032 175.667Z" fill="#F9C553"/>
<path id="shadow_2" d="M336.269 185.976C323.716 182.025 313.885 191.505 313.885 191.505L343.247 215.793L344.713 215.159L336.269 185.976Z" fill="#6D4853"/>
<path id="glove-1" d="M337.955 207.76C332.975 197.719 331.594 188.117 334.617 185.537C322.865 182.857 313.885 191.506 313.885 191.506L342.12 214.861C340.666 212.761 339.249 210.369 337.955 207.76Z" fill="#5B3B46"/>
</g>
<g id="right">
<path id="right-hand-2" d="M376.502 178.545C391.375 186.089 408.633 187.898 410.588 187.189C412.544 186.481 415.057 181.51 412.404 181.096C406.956 180.245 390.332 171.743 379.78 163.218C376.246 160.364 372.59 176.562 376.502 178.545Z" fill="#F9C553"/>
<path id="right-hand-1" d="M412.724 185.018C410.708 185.499 392.922 181.676 377.592 172.397C376.503 171.737 375.986 170.101 375.88 168.132C374.518 172.363 373.72 179.35 376.014 180.513C390.888 188.057 408.632 188.935 410.587 188.226C411.64 187.845 412.848 186.228 413.33 184.752C413.127 184.873 412.923 184.971 412.724 185.018Z" fill="#FCA649"/>
<g id="glove-group">
<path id="finger-3" d="M429.715 158.411C429.27 158.763 429.633 160.269 431.694 164.136L432.334 162.271C432.334 162.271 430.16 158.06 429.715 158.411Z" fill="#5B3B46"/>
<path id="finger-2" d="M431.125 156.942C430.68 157.294 431.044 158.8 433.105 162.667L433.745 160.803C433.745 160.803 431.571 156.59 431.125 156.942Z" fill="#5B3B46"/>
<path id="finger-1" d="M432.449 155.255C432.004 155.607 432.368 157.113 434.429 160.98L435.069 159.115C435.069 159.115 432.894 154.903 432.449 155.255Z" fill="#5B3B46"/>
<path id="hand-2_2" d="M432.7 168.305C435.666 165.098 436.112 162.939 436.013 161.582C435.914 160.226 434.478 158.168 434.478 158.168L433.686 159.222L434.33 160.779L432.547 161.031L430.864 167.458L432.7 168.305Z" fill="#5B3B46"/>
<path id="shadow_3" d="M408.33 180.919C407.771 194.24 417.154 203.106 417.154 203.106L432.8 168.104L431.822 166.829L408.33 180.919Z" fill="#6D4853"/>
<path id="glove-1_2" d="M425.009 175.61C418.408 181.501 411.541 184.854 408.388 183.963C409.203 195.568 417.151 203.106 417.151 203.106L432.797 168.104L432.33 167.495C430.541 170.082 428.039 172.907 425.009 175.61Z" fill="#5B3B46"/>
<path id="right-thumb" d="M428.54 172.299C428.556 168.108 429.545 166.702 430.14 165.396C430.733 164.09 429.843 162.081 430.833 160.575C431.822 159.069 432.03 162.57 432.417 164.793C433.605 171.623 428.54 172.299 428.54 172.299Z" fill="#6D4853"/>
</g>
</g>
</g>
<g id="pants-group">
<path id="Vector_58" d="M387.966 188.556C387.455 184.961 387.966 188.556 387.455 184.961C385.921 184.442 386.53 184.61 385.921 184.442C386.433 188.556 386.433 188.556 386.433 188.556C386.433 188.556 385.831 187.921 385.41 187.553C378.765 196.887 377.845 209.85 377.845 209.85V220.74L378.457 229.039C380.81 202.072 386.344 201.069 388.988 188.59C385.322 188.59 389.511 189.095 387.966 188.556Z" fill="#5A729B"/>
<path id="Vector_59" d="M346.606 360.122C346.606 360.122 332.357 247.408 333.195 233.138C334.034 218.867 346.052 205.184 346.052 205.184C346.052 205.184 348.607 210.369 358.831 211.406C373.654 213.48 377.898 209.837 377.898 209.837C368.12 248.282 353.312 299.25 346.606 360.122Z" fill="#5A729B"/>
<path id="Vector_60" d="M346.694 359.363L348.591 269.196L364.869 260.681C369.458 241.916 374.065 224.91 377.898 209.836C377.898 209.836 373.143 213.48 358.831 211.406C348.607 210.369 346.052 205.184 346.052 205.184C346.052 205.184 334.034 218.865 333.195 233.137C332.356 247.408 346.606 360.122 346.606 360.122C346.634 359.867 346.665 359.617 346.694 359.363Z" fill="#455F84"/>
<path id="Vector_61" d="M350.156 255.959C364.241 279.398 417.852 360.122 417.852 360.122C417.852 360.122 379.575 231.667 378.737 223.162C377.898 214.657 377.898 209.89 377.898 209.89C377.898 209.89 374.165 212.443 367.009 212.443C359.852 212.443 354.741 210.887 354.741 210.887C354.741 210.887 338.701 236.896 350.156 255.959Z" fill="#5A729B"/>
<path id="Vector_62" d="M360.882 161.78L358.316 163.25C358.316 163.25 357.969 170.04 361.974 180.716L364.768 180.999C361.228 171.458 360.882 161.78 360.882 161.78Z" fill="#455F84"/>
<path id="Vector_63" d="M356.477 211.967C360.852 199.99 364.767 180.999 364.767 180.999L361.973 180.716C361.973 180.716 361.401 190.3 352.972 210.71L356.477 211.967Z" fill="#455F84"/>
<path id="Vector_64" d="M380.236 164.928C379.927 164.427 379.613 164.009 379.296 163.712C378.936 163.374 378.592 163.061 378.248 162.751C369.932 166.379 361.974 180.717 361.974 180.717L364.768 181C370.477 170.896 376.789 166.624 380.236 164.928Z" fill="#455F84"/>
<path id="Vector_65" d="M365.595 181.023L363.882 177.174L360.99 179.725L361.228 183.787L364.162 184.826L365.595 181.023Z" fill="#EFD49E"/>
<path id="Vector_66" d="M367.006 256.693C358.528 242.584 365.793 222.841 367.009 212.443L354.741 210.887C354.741 210.887 337.73 237.178 349.184 256.241C363.269 279.68 417.852 360.122 417.852 360.122C417.852 360.122 417.649 359.442 417.283 358.211C406.693 336.67 378.669 276.102 367.006 256.693Z" fill="#455F84"/>
</g>
<g id="body-group">
<path id="right-foot" d="M429.401 363.24H415.989C415.989 363.24 414.127 358.138 416.921 357.004C419.715 355.87 429.401 363.24 429.401 363.24Z" fill="#FFEDC5"/>
<path id="left-foot" d="M342.179 363.239H351.671C351.671 363.239 350.447 358.593 347.905 357.56C345.362 356.527 342.179 363.239 342.179 363.239Z" fill="#FFEDC5"/>
<path id="ass" d="M348.928 229.488C344.367 232.317 340.894 246.269 350.988 259.103C344.843 247.464 345.801 235.63 348.928 229.488Z" fill="#335072"/>
<g id="head-group">
<path id="neck" d="M363.754 160.432C363.754 155.331 364.954 141.785 364.954 141.785L371.752 141.596L375.409 160.371C368.23 162.874 365.412 161.946 363.754 160.432Z" fill="#D27558"/>
<path id="nose-2" d="M381.472 142.294C381.472 142.294 381.375 142.509 381.25 142.845C382.338 144.349 383.717 146.961 380.954 146.767C380.981 146.835 380.991 146.909 381.024 146.974C385.837 147.979 382.346 143.215 381.472 142.294Z" fill="#D27558"/>
<path id="nose-1" d="M380.767 142.031C380.767 142.031 380.501 142.226 380.545 142.581C380.71 143.909 381.824 146.471 380.248 146.503C380.176 146.505 380.286 146.646 380.318 146.711C385.132 147.716 381.64 142.952 380.767 142.031Z" fill="#EDB984"/>
<path id="face" d="M380.128 158.523C384.106 151.438 380.609 133.692 378.859 131.353C377.108 129.015 365.405 134.347 365.168 141.731C364.718 155.761 380.128 158.523 380.128 158.523Z" fill="#EDB984"/>
<path id="bandana-shadow" d="M368.39 113.235C364.103 114.396 353.686 125.807 345.478 141.871L374.267 125.356C372.869 116.002 368.39 113.235 368.39 113.235Z" fill="#E2C488"/>
<path id="hair" d="M371.694 162.325C362.119 164.997 356.85 166.334 356.85 166.334C356.85 166.334 352.459 167.67 347.63 169.006C345.075 155.986 345.075 142.254 345.075 142.254C345.075 142.254 344.187 138.75 348.508 130.703C352.829 122.656 360.362 121.35 360.362 121.35C360.362 121.35 371.657 116.291 377.419 124.268C383.18 132.245 373.097 137.935 373.097 137.935L374.12 144.167C374.401 145.88 373.349 147.528 371.694 147.969V162.325Z" fill="#3A2F31"/>
<path id="bandana-4" d="M345.127 142.097C368.846 141.751 379.251 130.725 379.251 130.725C379.251 130.725 380.163 119.074 368.39 113.235C364.557 127.251 354.541 136.086 345.127 142.097Z" fill="#FFEDC5"/>
<path id="bandana-3" d="M345.66 141.897C341.449 146.544 338.578 148.447 337.421 146.098C336.265 143.749 345.66 141.897 345.66 141.897Z" fill="#FFEDC5"/>
<path id="bandana-2" d="M345.571 142.158C339.371 141.46 336.151 140.235 337.334 137.901C338.517 135.567 345.571 142.158 345.571 142.158Z" fill="#FFEDC5"/>
<path id="bandana-1" d="M345.355 143.057C345.951 143.057 346.435 142.566 346.435 141.96C346.435 141.355 345.951 140.864 345.355 140.864C344.758 140.864 344.274 141.355 344.274 141.96C344.274 142.566 344.758 143.057 345.355 143.057Z" fill="#FFEDC5"/>
<path id="eye-brow" d="M379.938 136.03L377.097 137.28C376.741 137.437 376.584 137.913 376.747 138.342L377.072 139.196C377.236 139.627 377.658 139.844 378.012 139.682L380.844 138.389C381.186 138.233 381.331 137.767 381.169 137.346L380.85 136.514C380.688 136.097 380.281 135.878 379.938 136.03Z" fill="#49383B"/>
<path id="eye" d="M380.472 141.399C380.476 140.575 380.135 139.875 379.707 139.834C379.278 139.792 378.924 140.43 378.917 141.26C378.91 142.092 379.255 142.798 379.686 142.832C380.117 142.868 380.468 142.226 380.472 141.399Z" fill="#5A4949"/>
<path id="smile" d="M381.264 150.972C380.129 151.504 378.656 150.761 377.802 149.183L377.232 149.471C378.064 151.195 379.624 152.017 380.808 151.462C381.127 151.312 381.383 151.067 381.587 150.766C381.486 150.843 381.38 150.917 381.264 150.972Z" fill="#D27558"/>
<g id="ear-group">
<path id="ear" d="M371.531 146.296C370.542 144.334 368.77 143.249 367.574 143.872C366.378 144.495 366.21 146.59 367.199 148.552C368.188 150.513 369.96 151.598 371.156 150.976C372.352 150.353 372.519 148.258 371.531 146.296Z" fill="#EDB984"/>
<path id="ear-top" d="M371.163 146.944C370.512 145.651 369.344 144.936 368.555 145.347C367.767 145.757 367.656 147.138 368.307 148.431C368.959 149.724 370.127 150.439 370.915 150.029C371.705 149.618 371.816 148.237 371.163 146.944Z" fill="#D27558"/>
<path id="ear-middle" d="M371.611 148.581C371.236 147.839 370.523 147.454 370.016 147.72C369.51 147.986 369.403 148.803 369.778 149.546C370.153 150.288 370.867 150.674 371.373 150.407C371.88 150.141 371.986 149.323 371.611 148.581Z" fill="#EDB984"/>
</g>
</g>
</g>
</g>
<g id="paints-group">
<g id="greenPaint">
<path id="greenPaintShadow" d="M539.591 350.279C539.591 352.521 523.156 354.337 502.882 354.337C482.608 354.337 466.173 352.52 466.173 350.279C466.173 348.038 482.608 346.22 502.882 346.22C523.155 346.22 539.591 348.038 539.591 350.279Z" fill="#C5BAC6"/>
<g id="bucket-group">
<path id="hole" d="M476.406 279.916C477.637 279.954 503.863 275.334 528.252 280.17C528.252 280.17 505.857 288.575 505.466 288.575C505.076 288.575 476.406 279.916 476.406 279.916Z" fill="#838BDD"/>
<path id="bucket" d="M522.458 351.079C508.611 355.363 495.118 355.419 481.989 351.131C479.733 350.394 478.229 348.226 478.229 345.821V285.958H526.316V345.736C526.317 348.179 524.762 350.367 522.458 351.079Z" fill="#EDEBE0"/>
<path id="top" d="M527.485 292.964C510.893 295.271 493.956 295.175 476.712 292.937C475.044 292.721 473.799 291.265 473.799 289.559V283.315C473.799 281.241 475.615 279.643 477.637 279.953C493.994 282.462 510.286 282.485 526.513 279.965C528.537 279.651 530.358 281.249 530.358 283.325V289.594C530.357 291.286 529.135 292.734 527.485 292.964Z" fill="#EDEBE0"/>
<path id="spill" d="M493.714 281.617V294.941C493.714 294.941 496.902 295.154 499.348 295.203V308.348C499.348 309.724 500.448 310.84 501.805 310.84C503.161 310.84 504.261 309.724 504.261 308.348V305.874C504.261 304.91 505.031 304.129 505.981 304.129C506.931 304.129 507.701 304.91 507.701 305.874V318.785C507.701 320.149 508.791 321.254 510.136 321.254C511.48 321.254 512.571 320.149 512.571 318.785V302.41C512.571 301.224 513.518 300.263 514.688 300.263C515.857 300.263 516.805 301.224 516.805 302.41V313.669C516.805 314.923 517.807 315.939 519.043 315.939C520.288 315.939 521.294 314.91 521.282 313.646L521.095 294L523.95 293.444C523.95 293.444 524.068 287.065 523.506 280.402C523.504 280.403 516.817 281.881 493.714 281.617Z" fill="#CBD177"/>
<path id="shadow_4" opacity="0.24" d="M478.229 293.128C478.229 293.128 502.693 297.848 525.295 293.252C525.295 293.252 482.512 304.69 478.229 324.543V293.128Z" fill="#838BDD"/>
</g>
<g id="handle-group">
<path id="handle" d="M519.663 285.713C520.356 285.619 520.872 286.345 520.567 286.983L510.633 307.678C510.302 308.38 509.59 308.816 508.824 308.786L471.935 307.354C470.582 307.301 469.704 305.885 470.244 304.626L475.443 292.492L478.231 293.129L474.444 301.726C473.89 302.984 474.76 304.412 476.117 304.472L506.455 305.819C507.213 305.853 507.919 305.432 508.259 304.745L517.01 287.606C517.537 286.573 518.528 285.866 519.663 285.713Z" fill="#838BDD"/>
<path id="connection_2" d="M521.757 287.313C521.757 288.714 520.637 289.85 519.256 289.85C517.875 289.85 516.755 288.714 516.755 287.313C516.755 285.912 517.875 284.776 519.256 284.776C520.637 284.776 521.757 285.912 521.757 287.313Z" fill="white"/>
</g>
</g>
<g id="yellowPaint">
<path id="yellowPaintShadow" d="M610.13 348.205C610.13 350.447 593.694 352.263 573.42 352.263C553.147 352.263 536.711 350.446 536.711 348.205C536.711 345.964 553.147 344.146 573.42 344.146C593.694 344.146 610.13 345.964 610.13 348.205Z" fill="#C5BAC6"/>
<g id="bucket-group_2">
<path id="hole_2" d="M540.199 250.297C541.834 250.348 576.659 244.213 609.044 250.633C609.044 250.633 579.307 261.794 578.788 261.794C578.268 261.794 540.199 250.297 540.199 250.297Z" fill="#838BDD"/>
<path id="bucket_2" d="M601.351 344.793C582.965 350.481 565.048 350.556 547.615 344.862C544.619 343.883 542.622 341.005 542.622 337.812V258.321H606.475V337.698C606.475 340.942 604.411 343.846 601.351 344.793Z" fill="#EDEBE0"/>
<path id="top_2" d="M608.024 267.624C585.992 270.688 563.503 270.56 540.605 267.589C538.391 267.301 536.738 265.369 536.738 263.104V254.812C536.738 252.058 539.149 249.937 541.834 250.348C563.553 253.679 585.187 253.71 606.734 250.364C609.421 249.946 611.839 252.068 611.839 254.825V263.15C611.839 265.395 610.217 267.318 608.024 267.624Z" fill="#EDEBE0"/>
<path id="spill_2" d="M563.183 252.556V270.249C563.183 270.249 567.417 270.533 570.666 270.598V288.991C570.666 290.818 572.126 292.299 573.927 292.299C575.728 292.299 577.188 290.818 577.188 288.991V285.705C577.188 284.425 578.211 283.388 579.472 283.388C580.733 283.388 581.756 284.426 581.756 285.705V315.849C581.756 317.66 583.203 319.129 584.989 319.129C586.774 319.129 588.222 317.661 588.222 315.849V294.106C588.222 292.531 589.481 291.254 591.033 291.254C592.586 291.254 593.844 292.531 593.844 294.106V309.055C593.844 310.721 595.175 312.071 596.816 312.071C598.469 312.071 599.805 310.703 599.789 309.026L599.54 269.001L603.332 268.262C603.332 268.262 603.488 259.792 602.743 250.945C602.741 250.944 593.862 252.907 563.183 252.556Z" fill="#F0AF46"/>
<path id="shadow_5" opacity="0.24" d="M542.622 267.842C542.622 267.842 575.107 274.108 605.118 268.006C605.118 268.006 548.309 283.196 542.622 309.556V267.842Z" fill="#838BDD"/>
</g>
<g id="handle-group_2">
<path id="handle_2" d="M550.672 255.993C549.752 255.869 549.066 256.833 549.472 257.679L562.662 285.16C563.102 286.093 564.046 286.671 565.065 286.631L614.047 284.729C615.844 284.659 617.01 282.778 616.292 281.105L609.82 267.001L606.474 267.623L610.716 277.253C611.451 278.923 610.296 280.819 608.495 280.9L568.209 282.688C567.204 282.733 566.265 282.174 565.814 281.261L554.194 258.503C553.495 257.134 552.179 256.196 550.672 255.993Z" fill="#838BDD"/>
<path id="connection_3" d="M547.891 258.117C547.891 259.977 549.377 261.486 551.212 261.486C553.046 261.486 554.533 259.977 554.533 258.117C554.533 256.256 553.046 254.748 551.212 254.748C549.377 254.748 547.891 256.256 547.891 258.117Z" fill="#BBC3FF"/>
</g>
<path id="drop" d="M588.852 326.496C588.852 328.36 587.363 329.871 585.526 329.871C583.689 329.871 582.199 328.36 582.199 326.496C582.199 324.633 583.689 323.122 585.526 323.122C587.363 323.122 588.852 324.633 588.852 326.496Z" fill="#F0AF46"/>
</g>
<g id="paintBox">
<path id="boxPaintShadow" d="M586.456 352.884C586.456 356.174 530.911 375.31 502.51 379.246C480.064 382.356 447.771 375.053 447.771 371.762C447.771 368.472 466.136 365.804 488.791 365.804C511.445 365.804 586.456 349.592 586.456 352.884Z" fill="#C5BAC6"/>
<path id="bottom" d="M465.163 363.446C468.924 362.48 541.707 343.487 541.707 343.487C541.707 343.487 567.318 352.071 567.029 352.393C566.739 352.715 489.731 374.614 489.327 374.391C488.923 374.169 465.163 363.446 465.163 363.446Z" fill="#E35756"/>
<path id="back" d="M535.92 337.693C535.775 338.015 536.064 346.707 536.064 346.707L577.303 356.364V345.956L535.92 337.693Z" fill="#241C75"/>
<path id="left_2" d="M535.919 337.693L450.838 358.832V369.777L536.064 346.707L535.919 337.693Z" fill="#241C75"/>
<path id="front" d="M450.838 358.832L488.354 367.661L489.327 378.791L450.838 369.777V358.832Z" fill="#8691E2"/>
<path id="right_2" d="M488.355 367.661L577.303 345.955V356.364L489.327 378.791L488.355 367.661Z" fill="#6C74C3"/>
</g>
<g id="purplePaint">
<path id="purplePaintShadow" d="M613.291 373.004C633.565 373.004 650 371.187 650 368.945C650 366.704 633.565 364.887 613.291 364.887C593.017 364.887 576.582 366.704 576.582 368.945C576.582 371.187 593.017 373.004 613.291 373.004Z" fill="#C5BAC6"/>
<g id="bucket-group_3">
<path id="bucket_3" d="M591.547 322.639H634.348V366.374C629.985 372.696 598.819 372.908 591.547 366.374V322.639Z" fill="#6C74C3"/>
<g id="spill-group">
<path id="spill_3" d="M604.308 326.207V342.271C604.308 343.999 605.688 345.398 607.39 345.398C609.092 345.398 610.472 343.998 610.472 342.271V339.165C610.472 337.956 611.439 336.976 612.631 336.976C613.823 336.976 614.789 337.957 614.789 339.165V355.37C614.789 357.082 616.157 358.47 617.845 358.47C619.533 358.47 620.901 357.082 620.901 355.37V334.819C620.901 333.331 622.091 332.124 623.558 332.124C625.025 332.124 626.215 333.331 626.215 334.819V348.949C626.215 350.523 627.472 351.799 629.024 351.799C630.586 351.799 631.848 350.506 631.833 348.922L631.601 324.55C627.933 325.737 620.955 326.539 612.946 326.539C609.871 326.539 606.95 326.419 604.308 326.207Z" fill="#0F041F"/>
<path id="drop_2" d="M609.974 351.102C609.974 352.552 608.816 353.727 607.386 353.727C605.957 353.727 604.798 352.552 604.798 351.102C604.798 349.652 605.957 348.477 607.386 348.477C608.815 348.477 609.974 349.652 609.974 351.102Z" fill="#0F041F"/>
</g>
<path id="hole_3" d="M612.947 326.538C624.766 326.538 634.347 324.793 634.347 322.639C634.347 320.486 624.766 318.741 612.947 318.741C601.128 318.741 591.547 320.486 591.547 322.639C591.547 324.793 601.128 326.538 612.947 326.538Z" fill="#241C75"/>
</g>
<g id="lid-group">
<path id="side" d="M589.4 347.566C584.717 359.28 579.089 368.024 576.83 367.095L579.339 368.127C581.598 369.057 587.225 360.313 591.908 348.599C596.592 336.884 598.557 326.634 596.3 325.705L593.79 324.673C596.049 325.602 594.083 335.852 589.4 347.566Z" fill="#241C75"/>
<path id="top_3" d="M589.399 347.567C594.082 335.853 596.048 325.603 593.79 324.674C591.531 323.745 585.905 332.489 581.221 344.203C576.538 355.917 574.572 366.167 576.83 367.096C579.089 368.025 584.716 359.282 589.399 347.567Z" fill="#8691E2"/>
</g>
</g>
<g id="redPaint">
<path id="redPaintShadow" d="M236.17 377.714C263.28 377.714 285.257 374.61 285.257 370.782C285.257 366.954 263.28 363.85 236.17 363.85C209.06 363.85 187.083 366.954 187.083 370.782C187.083 374.61 209.06 377.714 236.17 377.714Z" fill="#C5BAC6"/>
<path id="bucket_4" d="M265.577 370.279C245.383 376.526 225.706 376.608 206.559 370.354C203.269 369.279 201.075 366.117 201.075 362.611V275.308H271.204V362.487C271.204 366.05 268.937 369.24 265.577 370.279Z" fill="#EDEBE0"/>
<path id="top_4" d="M272.906 285.525C248.708 288.89 224.007 288.748 198.86 285.486C196.428 285.171 194.613 283.048 194.613 280.56V271.453C194.613 268.428 197.261 266.099 200.21 266.551C224.064 270.208 247.824 270.243 271.489 266.567C274.44 266.108 277.095 268.438 277.095 271.467V280.61C277.095 283.077 275.314 285.19 272.906 285.525Z" fill="#EDE8D0"/>
<path id="paint-spill" d="M223.657 269.228V288.66C223.657 288.66 228.306 288.971 231.874 289.043V308.213C231.874 310.22 233.477 311.846 235.456 311.846C237.434 311.846 239.038 310.22 239.038 308.213V304.603C239.038 303.198 240.161 302.058 241.546 302.058C242.932 302.058 244.055 303.198 244.055 304.603V323.434C244.055 325.423 245.644 327.035 247.605 327.035C249.566 327.035 251.155 325.423 251.155 323.434V299.554C251.155 297.824 252.538 296.422 254.243 296.422C255.948 296.422 257.33 297.824 257.33 299.554V315.973C257.33 317.802 258.791 319.285 260.595 319.285C262.41 319.285 263.877 317.782 263.859 315.941L263.586 287.289L267.75 286.478C267.75 286.478 268.356 273.628 266.823 267.406C255.577 268.443 257.35 269.614 223.657 269.228Z" fill="#E35756"/>
<path id="hole_4" d="M198.414 266.495C200.21 266.551 236.877 259.316 272.445 266.368C272.445 266.368 258.133 269.479 237.687 269.479C198.328 269.479 198.414 266.495 198.414 266.495Z" fill="#B74443"/>
<path id="shadow-bucket" opacity="0.24" d="M201.075 285.765C201.075 285.765 236.752 292.648 269.714 285.946C269.714 285.946 207.32 302.628 201.075 331.579V285.765Z" fill="#838BDD"/>
<g id="handle-group_3">
<path id="handle_3" d="M261.5 274.951C262.51 274.815 263.264 275.874 262.818 276.803L248.331 306.985C247.848 308.009 246.811 308.643 245.692 308.6L191.895 306.512C189.922 306.435 188.641 304.369 189.428 302.533L197.01 284.836L201.075 285.766L195.553 298.302C194.745 300.136 196.014 302.22 197.992 302.307L242.237 304.271C243.342 304.32 244.372 303.707 244.868 302.705L257.631 277.71C258.4 276.204 259.844 275.175 261.5 274.951Z" fill="#838BDD"/>
<path id="connection_4" d="M264.554 277.284C264.554 279.327 262.922 280.983 260.907 280.983C258.893 280.983 257.26 279.327 257.26 277.284C257.26 275.24 258.894 273.584 260.907 273.584C262.922 273.584 264.554 275.24 264.554 277.284Z" fill="white"/>
</g>
</g>
<g id="pink-paint">
<path id="bucket-shadow" d="M344.51 320.159L298.876 323.937C298.876 339.605 301.111 351.713 305.209 363.239H337.991C341.344 352.469 344.51 332.063 344.51 320.159Z" fill="#7A646D"/>
<path id="bucket_5" d="M312.029 322.849C317.03 327.21 321.734 334.903 324.602 344.302C326.669 351.076 327.452 357.665 327.095 363.239H337.991C341.343 352.468 344.51 332.062 344.51 320.159L312.029 322.849Z" fill="#68525C"/>
<g id="spill-group_2">
<path id="spill_4" d="M342.283 334.424C341.086 338.764 343.568 341.471 345.084 338.629C345.993 336.923 345.268 333.049 344.936 326.725C344.805 324.232 345.857 321.806 345.084 320.065C344.169 318.009 298.618 321.232 298.109 323.136C297.176 326.631 297.519 336.078 299.634 337.764C302.238 339.839 298.06 326.537 304.448 325.545C307.222 325.114 310.066 328.15 310.736 336.268C312.211 354.123 313.243 359.226 316.338 357.241C319.433 355.257 311.375 342.22 317.124 335.842C322.873 329.465 327.098 331.591 325.919 341.936C324.74 352.28 330.194 352.848 328.573 341.369C326.951 329.891 328.868 324.647 334.469 323.656C340.072 322.663 344.199 327.481 342.283 334.424Z" fill="#F09599"/>
<path id="top_5" d="M322.209 323.636C332.01 319.819 339.778 320.741 345.35 321.305C345.324 320.865 345.253 320.446 345.084 320.065C344.17 318.009 298.619 321.231 298.11 323.136C297.992 323.577 297.895 324.115 297.819 324.72C308.056 321.271 314.302 326.715 322.209 323.636Z" fill="#E37479"/>
</g>
<g id="handle-group_4">
<path id="connection-3" d="M313.312 326.516C313.13 324.705 311.782 323.238 310.301 323.238C308.82 323.238 307.766 324.706 307.947 326.516C308.128 328.327 309.476 329.794 310.958 329.794C312.439 329.794 313.494 328.327 313.312 326.516Z" fill="#7A646D"/>
<path id="connection-2" d="M312.141 326.658C312.026 325.51 311.172 324.581 310.234 324.581C309.297 324.581 308.629 325.511 308.744 326.658C308.859 327.805 309.713 328.734 310.65 328.734C311.589 328.735 312.256 327.805 312.141 326.658Z" fill="#513E47"/>
<path id="connection-1" d="M311.55 326.658C311.475 325.911 310.918 325.305 310.307 325.305C309.695 325.305 309.26 325.911 309.336 326.658C309.41 327.405 309.967 328.011 310.579 328.011C311.191 328.011 311.625 327.405 311.55 326.658Z" fill="#7A646D"/>
<path id="handle_4" d="M330.033 319.541C329.311 316.729 324.809 301.257 313.086 300.699C307.609 300.437 305.16 302.761 304.055 304.754C301.327 309.671 303.263 317.859 309.691 327.54L311.33 326.055C305.474 317.234 303.732 309.041 306.002 304.949C307.162 302.86 310.029 301.521 313.5 301.69C323.078 302.145 327.745 316.322 328.68 319.639L330.033 319.541Z" fill="#7A646D"/>
</g>
</g>
</g>
</g>
</g>
</g>
<defs>
<clipPath id="clip0_1_3">
<rect width="650" height="380" fill="white"/>
</clipPath>
</defs>
</svg>
